<svg version="1.1" id="Слой_1"
	 xmlns="http://www.w3.org/2000/svg" xmlns:xlink="http://www.w3.org/1999/xlink" x="0px" y="0px" viewBox="0 0 26 25"
	 enable-background="new 0 0 26 25" xml:space="preserve">
<metadata>
	<sfw>
		<sliceSourceBounds  width="26" height="25" bottomLeftOrigin="true" y="-292.5" x="467.6"></sliceSourceBounds>
	</sfw>
</metadata>
<g>
	<g>
		<path fill-rule="evenodd" clip-rule="evenodd" fill="#3C4858" d="M14.8,10.1h-3.1v3.1h3.1V10.1z M14.8,16.4h-3.1v3.1h3.1V16.4z
			 M9.3,10.1H6.2v3.1h3.1V10.1z M20.2,16.4h-3.1v3.1h3.1V16.4z M20.2,10.1h-3.1v3.1h3.1V10.1z M9.3,16.4H6.2v3.1h3.1V16.4z M21.4,0
			H4.6C2.1,0,0,2.1,0,4.6v15.7C0,22.9,2.1,25,4.6,25h16.8c2.5,0,4.6-2.1,4.6-4.6V4.6C26,2.1,23.9,0,21.4,0z M24.1,20.4
			c0,1.5-1.2,2.7-2.7,2.7H4.6c-1.5,0-2.7-1.2-2.7-2.7V6.7h22.1V20.4z"/>
	</g>
</g>
</svg>
