<?xml version="1.0" encoding="UTF-8"?>
<svg width="141px" height="56px" viewBox="0 0 141 56" version="1.1" xmlns="http://www.w3.org/2000/svg" xmlns:xlink="http://www.w3.org/1999/xlink">
    <!-- Generator: Sketch 42 (36781) - http://www.bohemiancoding.com/sketch -->
    <title>1</title>
    <desc>Created with Sketch.</desc>
    <defs></defs>
    <g id="Page-1" stroke="none" stroke-width="1" fill="none" fill-rule="evenodd">
        <g id="1" fill-rule="nonzero">
            <g id="Group">
                <polygon id="Shape" fill="#88FF3B" points="34.7 34.7 34.7 53.2 18.5 53.2 18.5 34.7 0 34.7 0 18.5 18.5 18.5 18.5 0 34.7 0 34.7 18.5 34.7 18.5"></polygon>
                <g transform="translate(32.000000, 0.000000)" id="Shape" fill="#000000">
                    <polygon points="12.5 14.1 12.5 5.5 9.1 12.8 7.2 12.8 3.8 5.5 3.8 14.1 1.2 14.1 1.2 1.4 4.4 1.4 8.1 9.2 11.8 1.4 15 1.4 15 14.1"></polygon>
                    <path d="M26.8,10.1 L19.8,10.1 C20.1,11.3 21.1,12.1 22.3,12.1 C23.2,12.1 24.1,11.7 24.8,11.1 L26.3,12.6 C25.3,13.7 23.9,14.3 22.1,14.3 C19,14.3 17,12.3 17,9.4 C17,6.4 19,4.4 22,4.4 C25.4,4.2 27,6.5 26.8,10.1 Z M24.2,8.4 C24.2,7.1 23.3,6.3 22,6.3 C20.8,6.3 19.9,7.1 19.7,8.4 L24.2,8.4 Z"></path>
                    <path d="M38.2,14.1 L35.4,14.1 L35.4,12.7 C34.7,13.7 33.7,14.2 32.3,14.2 C29.5,14.2 27.7,12.2 27.7,9.2 C27.7,6.2 29.5,4.3 32.2,4.3 C33.6,4.3 34.6,4.8 35.4,5.8 L35.4,0.6 L38.2,0.6 L38.2,14.1 L38.2,14.1 Z M35.5,9.2 C35.5,7.6 34.5,6.5 33.1,6.5 C31.6,6.5 30.7,7.6 30.6,9.2 C30.6,10.8 31.6,11.9 33.1,11.9 C34.5,11.9 35.5,10.8 35.5,9.2 Z"></path>
                    <path d="M43.9,1.6 C43.9,2.5 43.3,3.2 42.4,3.2 C41.5,3.2 40.9,2.5 40.9,1.6 C40.9,0.7 41.5,0 42.4,0 C43.3,0 43.9,0.7 43.9,1.6 Z M41,14.1 L41,4.3 L43.8,4.3 L43.8,14.1 L41,14.1 Z"></path>
                    <path d="M54.9,6.3 L53,7.6 C52.5,6.9 51.7,6.5 50.8,6.6 C49.4,6.6 48.5,7.7 48.5,9.2 C48.5,10.8 49.5,11.8 50.8,11.8 C51.8,11.8 52.6,11.4 53.1,10.7 L55,12 C54.2,13.4 52.7,14.2 50.7,14.2 C47.7,14.2 45.7,12.2 45.7,9.3 C45.7,6.3 47.7,4.3 50.7,4.3 C52.6,4.2 54,5 54.9,6.3 Z"></path>
                    <path d="M62.1,12.9 C61.4,13.7 60.4,14.2 59,14.2 C56.9,14.2 55.6,12.9 55.6,11.2 C55.6,9.4 56.9,8.3 59.3,8.3 L62,8.3 L62,8 C62,7 61.3,6.4 60,6.4 C59.1,6.4 58.1,6.7 57.1,7.3 L56.2,5.4 C57.7,4.7 58.9,4.3 60.6,4.3 C63.2,4.3 64.7,5.6 64.7,7.8 L64.7,14.2 L62,14.2 L62,12.9 L62.1,12.9 Z M62.1,10.7 L62.1,9.9 L59.9,9.9 C58.8,9.9 58.3,10.2 58.3,11 C58.3,11.7 58.9,12.2 59.8,12.2 C61,12.2 61.9,11.6 62.1,10.7 Z"></path>
                    <polygon points="67.4 14.1 67.4 0.6 70.2 0.6 70.2 14 67.4 14"></polygon>
                    <polygon points="1.2 32.8 1.2 20.1 4.1 20.1 4.1 32.8"></polygon>
                    <path d="M16.6,26.7 L16.6,32.8 L13.8,32.8 L13.8,27.5 C13.8,26.3 13.1,25.5 11.9,25.5 C10.5,25.5 9.7,26.6 9.7,28 L9.7,32.8 L6.9,32.8 L6.9,23 L9.7,23 L9.7,24.7 C10.4,23.5 11.5,22.9 13.1,22.9 C15.2,23 16.6,24.4 16.6,26.7 Z"></path>
                    <path d="M22.3,22.7 L22.3,23.5 L24.6,23.5 L24.6,25.4 L22.3,25.4 L22.3,32.8 L19.5,32.8 L19.5,25.4 L18.2,25.4 L18.2,23.5 L19.5,23.5 L19.5,22.6 C19.5,20.4 21.1,19.3 23.1,19.3 C24,19.3 25,19.5 25.7,20 L24.7,22 C24.3,21.7 23.9,21.6 23.5,21.6 C22.8,21.5 22.3,21.9 22.3,22.7 Z"></path>
                    <path d="M35.2,27.9 C35.2,30.9 33.1,32.9 30,32.9 C26.9,32.9 24.8,30.9 24.8,27.9 C24.8,24.9 26.9,22.9 30,22.9 C33.1,23 35.2,25 35.2,27.9 Z M27.6,28 C27.6,29.6 28.6,30.7 30,30.7 C31.4,30.7 32.4,29.6 32.4,28 C32.4,26.4 31.4,25.3 30,25.3 C28.5,25.3 27.6,26.4 27.6,28 Z"></path>
                    <path d="M39.9,24.8 C40.6,23.6 41.7,23 43.1,22.9 L43.1,25.5 C41.1,25.3 39.9,26.4 39.9,28 L39.9,32.7 L37.1,32.7 L37.1,22.9 L39.9,22.9 L39.9,24.8 Z"></path>
                    <path d="M61,26.7 L61,32.8 L58.2,32.8 L58.2,27.5 C58.2,26.2 57.5,25.5 56.3,25.5 C55,25.5 54.1,26.6 54.1,28 L54.1,32.8 L51.3,32.8 L51.3,27.5 C51.3,26.2 50.6,25.5 49.4,25.5 C48,25.5 47.2,26.6 47.2,28 L47.2,32.8 L44.4,32.8 L44.4,23 L47.2,23 L47.2,24.7 C47.9,23.5 49,22.9 50.5,22.9 C52.1,22.9 53.3,23.7 53.8,25.1 C54.4,23.6 55.7,22.9 57.3,22.9 C59.7,23 61,24.4 61,26.7 Z"></path>
                    <path d="M69.1,31.7 C68.4,32.5 67.4,33 66,33 C63.9,33 62.6,31.7 62.6,30 C62.6,28.2 63.9,27.1 66.3,27.1 L69,27.1 L69,26.9 C69,25.9 68.3,25.3 67,25.3 C66.1,25.3 65.1,25.6 64.1,26.2 L63.2,24.3 C64.7,23.6 65.9,23.2 67.6,23.2 C70.2,23.2 71.7,24.5 71.7,26.7 L71.7,33.1 L69,33.1 L69,31.7 L69.1,31.7 Z M69.1,29.5 L69.1,28.6 L66.9,28.6 C65.8,28.6 65.3,28.9 65.3,29.7 C65.3,30.4 65.9,30.9 66.8,30.9 C68,31 68.9,30.3 69.1,29.5 Z"></path>
                    <path d="M80.3,32.3 C79.6,32.7 78.7,33 77.8,33 C76.1,33 74.7,32 74.7,30 L74.7,25.5 L73.3,25.5 L73.3,23.6 L74.7,23.6 L74.7,20.9 L77.5,20.9 L77.5,23.6 L80.1,23.6 L80.1,25.5 L77.5,25.5 L77.5,29.5 C77.5,30.3 77.8,30.6 78.4,30.6 C78.8,30.6 79.2,30.5 79.7,30.2 L80.3,32.3 Z"></path>
                    <path d="M84.9,20.3 C84.9,21.2 84.3,21.9 83.4,21.9 C82.5,21.9 81.9,21.2 81.9,20.3 C81.9,19.4 82.5,18.7 83.4,18.7 C84.3,18.7 84.9,19.4 84.9,20.3 Z M82,32.8 L82,23 L84.8,23 L84.8,32.8 L82,32.8 Z"></path>
                    <path d="M97.1,27.9 C97.1,30.9 95,32.9 91.9,32.9 C88.8,32.9 86.7,30.9 86.7,27.9 C86.7,24.9 88.8,22.9 91.9,22.9 C95,23 97.1,25 97.1,27.9 Z M89.4,28 C89.4,29.6 90.4,30.7 91.8,30.7 C93.2,30.7 94.2,29.6 94.2,28 C94.2,26.4 93.2,25.3 91.8,25.3 C90.4,25.3 89.4,26.4 89.4,28 Z"></path>
                    <path d="M108.7,26.7 L108.7,32.8 L105.9,32.8 L105.9,27.5 C105.9,26.3 105.2,25.5 104,25.5 C102.6,25.5 101.8,26.6 101.8,28 L101.8,32.8 L99,32.8 L99,23 L101.8,23 L101.8,24.7 C102.5,23.5 103.6,22.9 105.2,22.9 C107.3,23 108.7,24.4 108.7,26.7 Z"></path>
                    <path d="M9.6,40 L9,41.4 C7.9,40.6 6.5,40.3 5.5,40.3 C3.9,40.3 2.8,40.9 2.8,42 C2.8,45.3 9.9,43.6 9.9,48.2 C9.9,50.3 8,51.7 5.3,51.7 C3.5,51.7 1.6,50.9 0.4,49.8 L1.1,48.5 C2.3,49.6 3.9,50.3 5.3,50.3 C7.1,50.3 8.3,49.6 8.3,48.3 C8.3,45 1.2,46.7 1.2,42.2 C1.2,40.2 3,38.9 5.6,38.9 C7,38.8 8.5,39.3 9.6,40 Z"></path>
                    <path d="M15.7,52.9 C15.1,54.4 14.1,55.1 12.8,55.1 C12,55.1 11.4,54.9 10.8,54.4 L11.4,53.2 C11.8,53.5 12.3,53.7 12.7,53.7 C13.4,53.7 14.1,53.2 14.4,52.4 L14.8,51.5 L11,42 L12.5,42 L15.7,49.9 L18.7,42 L20.2,42 L15.7,52.9 Z"></path>
                    <path d="M27.3,42.8 L26.7,44 C26,43.5 25,43.2 24.1,43.2 C23,43.2 22.2,43.6 22.2,44.5 C22.2,46.6 27.5,45.5 27.5,49 C27.5,50.9 25.8,51.7 24,51.7 C22.6,51.7 21.2,51.2 20.3,50.4 L20.8,49.3 C21.6,50.1 22.8,50.5 24,50.5 C25.1,50.5 26,50.1 26,49.1 C26.1,46.8 20.7,48 20.7,44.6 C20.7,42.8 22.3,42 24,42 C25.4,42 26.5,42.3 27.3,42.8 Z"></path>
                    <path d="M34.9,50.9 C34.2,51.4 33.5,51.6 32.7,51.6 C31.3,51.6 30.3,50.8 30.3,48.9 L30.3,43.4 L28.9,43.4 L28.9,42.3 L30.3,42.3 L30.3,39.8 L31.7,39.8 L31.7,42.3 L34.7,42.3 L34.7,43.5 L31.7,43.5 L31.7,48.7 C31.7,49.9 32.2,50.3 33,50.3 C33.5,50.3 34,50.1 34.5,49.8 L34.9,50.9 Z"></path>
                    <path d="M45.1,47.3 L37.3,47.3 C37.6,49.2 38.9,50.3 40.8,50.3 C42,50.3 43,49.9 43.8,49.1 L44.6,49.9 C43.7,50.9 42.4,51.5 40.8,51.5 C38,51.5 36.1,49.5 36.1,46.7 C36.1,43.9 38.1,41.9 40.8,41.9 C43.7,42 45.2,44.1 45.1,47.3 Z M43.8,46.2 C43.7,44.4 42.5,43.2 40.6,43.2 C38.8,43.2 37.5,44.4 37.3,46.2 L43.8,46.2 Z"></path>
                    <path d="M63.3,45.7 L63.3,51.6 L61.9,51.6 L61.9,46.1 C61.9,44.4 60.9,43.4 59.3,43.4 C57.3,43.5 56.2,44.9 56.2,46.9 L56.2,51.6 L54.8,51.6 L54.8,46.1 C54.8,44.4 53.8,43.4 52.2,43.4 C50.2,43.5 49.1,44.9 49.1,46.9 L49.1,51.6 L47.7,51.6 L47.7,42 L49.1,42 L49.1,44.2 C49.7,42.7 51,42 52.7,42 C54.5,42 55.7,42.9 56.1,44.5 C56.7,42.8 58,42 59.9,42 C62,42 63.3,43.4 63.3,45.7 Z"></path>
                </g>
            </g>
        </g>
    </g>
</svg>