<svg version="1.1" id="Слой_1"
	 xmlns="http://www.w3.org/2000/svg" xmlns:xlink="http://www.w3.org/1999/xlink" x="0px" y="0px" viewBox="0 0 15.4 12.5"
	 enable-background="new 0 0 15.4 12.5" xml:space="preserve">
<metadata>
	<sfw>
		<sliceSourceBounds  width="960" height="560" bottomLeftOrigin="true" y="-560" x="0"></sliceSourceBounds>
	</sfw>
</metadata>
<path fill-rule="evenodd" clip-rule="evenodd" fill="#3C4858" d="M15.1,11.9c-0.5,0.7-1.4,0.8-2,0.4L9.6,9c-0.4-0.3,0,0.5,0,0.1
	c-0.8,0.8-1.8,1.4-2.9,1.6c-1.4,0.3-2.8-0.1-4-0.9c-1.2-0.8-2-2-2.2-3.4c-0.3-1.4,0-2.8,0.9-4c1.7-2.4,5-3,7.4-1.4
	c2.2,1.5,2.9,4.4,1.8,6.8c0.4-0.2-0.2-0.5,0.3-0.2l4,2.3C15.4,10.3,15.6,11.2,15.1,11.9z M9.4,4.7c-0.2-1-0.7-1.8-1.5-2.4
	c-1.7-1.2-4-0.7-5.2,0.9c-1.2,1.7-0.7,4,0.9,5.2c1.7,1.2,4,0.7,5.2-0.9C9.4,6.7,9.6,5.7,9.4,4.7z"/>
</svg>
